# AST/ASF file generated using VICON BodyLanguage
# -----------------------------------------------
:version 1.10
:name VICON
:units
  mass 1.0
  length 0.45
  angle deg
:documentation
   .ast/.asf automatically generated from VICON data using
   VICON BodyBuilder and BodyLanguage model FoxedUp or BRILLIANT.MOD
:root
   order TX TY TZ RX RY RZ
   axis XYZ
   position 0 0 0  
   orientation 0 0 0 
:bonedata
  begin
     id 1 
     name lhipjoint
     direction 0.734343 -0.627749 0.258209 
     length 2.5437 
     axis 0 0 0  XYZ
  end
  begin
     id 2 
     name lfemur
     direction 0.34202 -0.939693 0  
     length 6.7391  
     axis 0 0 20  XYZ
    dof rx ry rz
    limits (-160.0 20.0)
           (-70.0 70.0)
           (-60.0 70.0)
  end
  begin
     id 3 
     name ltibia
     direction 0.34202 -0.939693 0   
     length 7.21536   
     axis 0 0 20   XYZ
    dof rx
    limits (-10.0 170.0)
  end
  begin
     id 4 
     name lfoot
     direction 0.0489572 -0.134509 0.989702   
     length 1.61313   
     axis -90 7.62852e-016 20   XYZ
    dof rx rz
    limits (-45.0 90.0)
           (-70.0 20.0)
  end
  begin
     id 5 
     name ltoes
     direction 1.53451e-011 -4.21692e-011 1   
     length 0.823104   
     axis -90 7.62852e-016 20   XYZ
    dof rx
    limits (-90.0 20.0)
  end
  begin
     id 6 
     name rhipjoint
     direction -0.746398 -0.615468 0.253157   
     length 2.59446  
     axis 0 0 0  XYZ 
  end
  begin
     id 7 
     name rfemur
     direction -0.34202 -0.939693 0   
     length 6.7075   
     axis 0 0 -20   XYZ
    dof rx ry rz
    limits (-160.0 20.0)
           (-70.0 70.0)
           (-70.0 60.0)
  end
  begin
     id 8 
     name rtibia
     direction -0.34202 -0.939693 0   
     length 7.27262   
     axis 0 0 -20   XYZ
    dof rx
    limits (-10.0 170.0)
 end
 begin
     id 9 
     name rfoot
     direction -0.0455203 -0.125066 0.991104   
     length 1.91095  
     axis -90 -7.62852e-016 -20   XYZ
    dof rx rz
    limits (-45.0 90.0)
           (-20.0 70.0)
  end
  begin
     id 10 
     name rtoes
     direction -1.53601e-011 -4.21913e-011 1   
     length 0.969037   
     axis -90 -7.62852e-016 -20   XYZ
    dof rx
    limits (-90.0 20.0)
  end
  begin
     id 11 
     name lowerback
     direction 0.0181546 0.999122 -0.0377542   
     length 1.99916   
     axis 0 0 0   XYZ
    dof rx ry rz
    limits (-20.0 45.0)
           (-30.0 30.0)
           (-30.0 30.0)
  end
  begin
     id 12 
     name upperback
     direction 0.0203486 0.99589 0.0882534   
     length 1.951   
     axis 0 0 0   XYZ
    dof rx ry rz
    limits (-20.0 45.0)
           (-30.0 30.0)
           (-30.0 30.0)
  end
  begin
     id 13 
     name thorax
     direction 0.0131685 0.994241 0.106355   
     length 1.97461   
     axis 0 0 0   XYZ
    dof rx ry rz
    limits (-20.0 45.0)
           (-30.0 30.0)
           (-30.0 30.0)
  end
  begin
     id 14 
     name lowerneck
     direction -0.0281395 0.999325 0.023617   
     length 1.7959   
     axis 0 0 0   XYZ
    dof rx ry rz
    limits (-20.0 45.0)
           (-30.0 30.0)
           (-30.0 30.0)
  end
  begin
     id 15 
     name upperneck
     direction 0.0288721 0.991984 -0.123019   
     length 1.79917   
     axis 0 0 0   XYZ
    dof rx ry rz
    limits (-20.0 45.0)
           (-30.0 30.0)
           (-30.0 30.0)
  end
  begin
     id 16
     name head
     direction 0.0133797 0.998944 -0.0439492  
     length 1.80902  
     axis 0 0 0   XYZ
    dof rx ry rz
    limits (-20.0 45.0)
           (-30.0 30.0)
           (-30.0 30.0)
  end
  begin
     id 17 
     name lclavicle
     direction 0.919195 0.377107 0.113449  
     length 3.17815  
     axis 0 0 0   XYZ
    dof ry rz
    limits (-20.0 10.0)
           (0.0 20.0)
  end
  begin
     id 18 
     name lhumerus
     direction 1 -4.48959e-011 2.13129e-027   
     length 4.84137   
     axis 180 -30 -90   XYZ
    dof rx ry rz
    limits (-60.0 90.0)
           (-90.0 90.0)
           (-90.0 90.0)
  end
  begin
     id 19
     name lradius
     direction 1 -4.48957e-011 -6.30627e-028   
     length 3.2452   
     axis 180 -30 -90   XYZ
    dof rx
    limits (-10.0 170.0)
  end
  begin
     id 20
     name lwrist
     direction 1 -4.4901e-011 9.13299e-027   
     length 1.6226   
     axis -6.84618e-015 90 90   XYZ
    dof ry
    limits (-180.0 0.0)
 end
  begin
     id 21 
     name lhand
     direction 1 -4.48816e-011 1.82293e-026   
     length 0.521221   
     axis -1.16502e-014 90 90   XYZ
    dof rx rz
    limits (-90.0 90.0)
           (-45.0 45.0)
  end
  begin
     id 22 
     name lfingers
     direction 1 -4.49108e-011 3.65687e-026   
     length 0.420221   
     axis -2.33008e-014 90 90   XYZ
    dof rx
    limits (0.0 90.0)
  end
  begin
     id 23
     name lthumb
     direction 0.707107 -6.34943e-011 0.707107   
     length 0.603356   
     axis -90 45 5.69224e-014   XYZ
    dof rx rz
    limits (-45.0 45.0)
           (-45.0 45.0)
  end
  begin
     id 24 
     name rclavicle
     direction -0.90847 0.38596 0.160368   
     length 3.12973  
     axis 0 0 0   XYZ 
    dof ry rz
    limits (-10.0 20.0)
           (-20.0 0.0)
  end
  begin
     id 25 
     name rhumerus
     direction -1 -4.48974e-011 4.47268e-028  
     length 4.72284   
     axis 180 30 90   XYZ
    dof rx ry rz
    limits (-90.0 60.0)
           (-90.0 90.0)
           (-90.0 90.0)
  end
  begin
     id 26 
     name rradius
     direction -1 -4.48969e-011 3.43203e-027   
     length 3.23459   
     axis 180 30 90   XYZ
    dof rx
    limits (-10.0 170.0)
  end
  begin
     id 27 
     name rwrist
     direction -1 -4.48969e-011 9.12911e-027   
     length 1.6173   
     axis -6.84618e-015 -90 -90   XYZ
    dof ry
    limits (-180.0 0.0)
  end
  begin
     id 28
     name rhand
     direction -1 -4.49194e-011 1.83006e-026   
     length 0.307416   
     axis -1.16502e-014 -90 -90   XYZ
    dof rx rz
    limits (-90.0 90.0)
           (-45.0 45.0)
  end
  begin
     id 29
     name rfingers
     direction -1 -4.48423e-011 3.63103e-026   
     length 0.247847   
     axis -2.33008e-014 -90 -90   XYZ
    dof rx
    limits (0.0 90.0)
  end
  begin
     id 30
     name rthumb
     direction -0.707107 -6.34802e-011 0.707107   
     length 0.35586   
     axis -90 -45 -5.69224e-014   XYZ
    dof rx rz
    limits (-45.0 45.0)
           (-45.0 45.0)
  end
:hierarchy
  begin
    root lhipjoint rhipjoint lowerback
    lhipjoint lfemur
    lfemur ltibia
    ltibia lfoot
    lfoot ltoes
    rhipjoint rfemur
    rfemur rtibia
    rtibia rfoot
    rfoot rtoes
    lowerback upperback
    upperback thorax
    thorax lowerneck lclavicle rclavicle
    lowerneck upperneck
    upperneck head
    lclavicle lhumerus
    lhumerus lradius
    lradius lwrist
    lwrist lhand lthumb
    lhand lfingers
    rclavicle rhumerus
    rhumerus rradius
    rradius rwrist
    rwrist rhand rthumb
    rhand rfingers
  end

#!OML:ASF H:\Terrain\Patient Classification 1\Animal1\Tuesday\Animal1.ASF
:FULLY-SPECIFIED
:DEGREES
215
root 15.1263 15.4913 -24.2033 8.56471 -13.9231 0.829127
lowerback 11.4409 -0.298934 3.5644
upperback 6.90711 -0.106505 0.828234
thorax 0.800593 0.0168977 -1.13302
lowerneck -9.63453 3.54449 -1.85791
upperneck -14.9763 5.09333 2.28399
head -3.33125 2.55083 1.06273
rclavicle -9.14409e-015 6.36111e-015
rhumerus -77.5428 62.0059 -97.8799
rradius 56.3323
rwrist -47.8731
rhand 37.0702 7.20546
rfingers 7.12502
rthumb 59.9253 -6.653
lclavicle -9.14409e-015 6.36111e-015
lhumerus -57.6841 -51.3933 81.5102
lradius 56.8746
lwrist -6.41703
lhand 53.6385 32.8881
lfingers 7.12502
lthumb 72.1292 20.2671
rfemur -34.1478 -1.27617 28.3075
rtibia 44.4082
rfoot -21.0802 -32.5951
rtoes 23.4994
lfemur -36.6485 6.9202 -24.7825
ltibia 45.051
lfoot -20.128 20.7456
ltoes 13.4002
216
root 15.1165 15.4966 -24.1839 8.30797 -13.8719 0.867472
lowerback 11.2293 -0.289415 3.49558
upperback 6.87437 -0.10823 0.743629
thorax 0.879933 0.0170009 -1.18223
lowerneck -9.93169 3.55112 -1.59695
upperneck -14.2881 5.06629 2.2337
head -3.02695 2.53137 1.01049
rclavicle -1.61016e-014 2.54444e-014
rhumerus -75.7951 62.6915 -94.8347
rradius 54.7401
rwrist -47.7899
rhand 38.0998 8.10735
rfingers 7.12502
rthumb 60.8022 -4.80234
lclavicle -1.61016e-014 2.54444e-014
lhumerus -55.64 -51.8517 77.6362
lradius 56.0711
lwrist -5.72506
lhand 57.9584 33.5068
lfingers 7.12502
lthumb 74.0341 8.08617
rfemur -33.6993 -0.968897 28.2036
rtibia 44.3014
rfoot -21.0992 -33.1724
rtoes 23.2349
lfemur -36.1323 6.92742 -24.7641
ltibia 44.8471
lfoot -20.6634 20.5996
ltoes 14.4094
217
root 15.1085 15.507 -24.164 8.03914 -13.6413 1.05601
lowerback 10.979 -0.313568 3.42202
upperback 6.75263 -0.152195 0.660707
thorax 0.884972 -0.00564685 -1.22288
lowerneck -9.91252 3.45976 -1.62864
upperneck -13.7023 4.94542 2.36012
head -2.82888 2.47364 1.05945
rclavicle 3.02153e-014 1.39149e-014
rhumerus -73.835 63.2353 -91.3067
rradius 53.0069
rwrist -47.7322
rhand 40.2597 8.38464
rfingers 7.12502
rthumb 62.6101 -2.32831
lclavicle 3.02153e-014 1.39149e-014
lhumerus -53.6296 -52.5394 73.9722
lradius 55.1372
lwrist -4.64806
lhand 61.8212 35.0361
lfingers 7.12502
lthumb 74.8953 -3.97253
rfemur -33.3053 -0.894013 27.9536
rtibia 44.2153
rfoot -21.4778 -33.3057
rtoes 24.2478
lfemur -35.6385 6.78629 -24.9035
ltibia 44.6033
lfoot -20.7325 20.5373
ltoes 13.9815
218
root 15.1023 15.516 -24.1437 7.86694 -13.4034 1.28992
lowerback 10.5869 -0.272681 3.3795
upperback 6.48553 -0.108342 0.609555
thorax 0.819283 0.0137836 -1.25694
lowerneck -9.42503 3.30888 -1.93075
upperneck -13.2766 4.77628 2.61345
head -2.77777 2.39812 1.18669
rclavicle -1.35174e-014 -3.57812e-015
rhumerus -71.9157 63.4632 -87.5216
rradius 50.9557
rwrist -47.6085
rhand 39.2982 9.19024
rfingers 7.12502
rthumb 61.8109 -2.53713
lclavicle -1.35174e-014 -3.57812e-015
lhumerus -51.7868 -53.484 70.6631
lradius 53.9131
lwrist -3.66235
lhand 65.2831 37.6831
lfingers 7.12502
lthumb 74.8691 -14.1707
rfemur -33.0232 -0.966342 27.6832
rtibia 44.0989
rfoot -21.845 -33.1588
rtoes 24.8964
lfemur -35.2994 6.57644 -25.1047
ltibia 44.3939
lfoot -20.7178 20.6391
ltoes 12.414
219
root 15.0924 15.5205 -24.1217 7.82413 -13.2122 1.10661
lowerback 10.1407 -0.243912 3.56659
upperback 6.24821 -0.0649201 0.715741
thorax 0.81662 0.0372389 -1.25654
lowerneck -9.40153 3.23921 -2.21687
upperneck -12.4429 4.70597 2.85495
head -2.5116 2.37615 1.3168
rclavicle 7.95139e-016 1.59028e-014
rhumerus -69.6772 63.9239 -83.4311
rradius 48.6891
rwrist -47.9164
rhand 44.4085 7.30324
rfingers 7.12502
rthumb 65.933 1.76037
lclavicle 7.95139e-016 1.59028e-014
lhumerus -49.7897 -54.2471 67.1861
lradius 52.521
lwrist -2.87105
lhand 67.572 40.7778
lfingers 7.12502
lthumb 74.4331 -19.2709
rfemur -32.7029 -0.909434 27.8681
rtibia 43.8987
rfoot -22.3435 -33.1111
rtoes 25.4681
lfemur -35.0673 6.44069 -24.8621
ltibia 44.2692
lfoot -20.6536 20.8434
ltoes 11.1305
220
root 15.0771 15.5303 -24.0954 7.69432 -13.0429 0.791212
lowerback 9.80543 -0.290866 3.78889
upperback 6.07316 -0.117577 0.843709
thorax 0.815132 0.0133956 -1.24444
lowerneck -9.76992 3.26436 -2.31817
upperneck -11.2924 4.73161 2.92567
head -2.07049 2.40081 1.36763
rclavicle -1.45113e-014 -1.19271e-014
rhumerus -66.5307 64.4984 -78.5732
rradius 46.5126
rwrist -48.1307
rhand 46.5883 6.35175
rfingers 7.12502
rthumb 67.5757 4.14758
lclavicle -1.45113e-014 -1.19271e-014
lhumerus -47.6701 -54.5993 63.3498
lradius 51.1121
lwrist -2.63274
lhand 68.1208 42.5434
lfingers 7.12502
lthumb 74.2819 -19.3894
rfemur -32.1889 -0.785436 28.1985
rtibia 43.6321
rfoot -23.062 -33.108
rtoes 27.0139
lfemur -34.7176 6.31152 -24.4286
ltibia 44.1936
lfoot -20.5295 21.0686
ltoes 10.5901
221
root 15.0632 15.5437 -24.0666 7.41172 -12.9252 0.692346
lowerback 9.52162 -0.342485 3.802
upperback 5.9442 -0.193042 0.915579
thorax 0.831813 -0.0257695 -1.17145
lowerneck -9.73509 3.33597 -2.36398
upperneck -10.6526 4.81213 2.85095
head -1.86668 2.44648 1.35435
rclavicle -1.64991e-014 1.59028e-015
rhumerus -62.182 64.6702 -72.4979
rradius 44.3436
rwrist -47.6487
rhand 48.1629 5.38276
rfingers 7.12502
rthumb 68.7056 5.91351
lclavicle -1.64991e-014 1.59028e-015
lhumerus -45.4629 -54.6322 59.2632
lradius 49.6656
lwrist -3.20809
lhand 67.5773 42.2933
lfingers 7.12502
lthumb 74.4317 -17.7735
rfemur -31.5432 -0.581644 28.2686
rtibia 43.347
rfoot -23.4924 -33.2424
rtoes 28.2651
lfemur -34.2052 6.11205 -24.2034
ltibia 44.1093
lfoot -20.6611 21.2139
ltoes 10.5574
